<svg width="40" height="40" viewBox="0 0 40 40" fill="none" xmlns="http://www.w3.org/2000/svg">
<path fill-rule="evenodd" clip-rule="evenodd" d="M38 20C38 29.9411 29.9411 38 20 38C10.0589 38 2 29.9411 2 20C2 10.0589 10.0589 2 20 2C29.9411 2 38 10.0589 38 20ZM39 20C39 30.4934 30.4934 39 20 39C9.50659 39 1 30.4934 1 20C1 9.50659 9.50659 1 20 1C30.4934 1 39 9.50659 39 20ZM17.6464 15.3536L22.2929 20L17.6464 24.6465L18.3535 25.3536L23.7071 20L18.3535 14.6465L17.6464 15.3536Z" fill="#E5E6E6"/>
</svg>
